<mxfile host="65bd71144e">
    <diagram id="6hGFLwfOUW9BJ-s0fimq" name="Page-1">
        <mxGraphModel dx="1309" dy="762" grid="1" gridSize="10" guides="1" tooltips="1" connect="1" arrows="1" fold="1" page="1" pageScale="1" pageWidth="827" pageHeight="1169" background="#FFFFFF" math="0" shadow="0">
            <root>
                <mxCell id="0"/>
                <mxCell id="1" parent="0"/>
                <mxCell id="15" value="" style="whiteSpace=wrap;html=1;labelBackgroundColor=none;labelBorderColor=none;align=left;fillColor=none;strokeColor=#000000;fontColor=#000000;" parent="1" vertex="1">
                    <mxGeometry x="150" y="40" width="650" height="600" as="geometry"/>
                </mxCell>
                <mxCell id="10" value="&lt;font&gt;Mitarbeiter&lt;/font&gt;" style="shape=umlActor;verticalLabelPosition=bottom;labelBackgroundColor=none;verticalAlign=top;html=1;outlineConnect=0;fillColor=none;strokeColor=#000000;fontColor=#000000;" parent="1" vertex="1">
                    <mxGeometry x="50" y="520" width="20" height="40" as="geometry"/>
                </mxCell>
                <mxCell id="13" value="&lt;font&gt;Kunde&lt;/font&gt;" style="shape=umlActor;verticalLabelPosition=bottom;labelBackgroundColor=none;verticalAlign=top;html=1;outlineConnect=0;fillColor=none;strokeColor=#000000;fontColor=#000000;" parent="1" vertex="1">
                    <mxGeometry x="50" y="200" width="20" height="40" as="geometry"/>
                </mxCell>
                <mxCell id="14" value="" style="edgeStyle=orthogonalEdgeStyle;rounded=0;orthogonalLoop=1;jettySize=auto;html=1;fontColor=#000000;labelBorderColor=none;labelBackgroundColor=none;fillColor=none;strokeColor=#000000;" parent="1" source="10" edge="1">
                    <mxGeometry relative="1" as="geometry">
                        <mxPoint x="60" y="260" as="targetPoint"/>
                    </mxGeometry>
                </mxCell>
                <mxCell id="16" value="&lt;h3&gt;Fahrrad Werkstatt&lt;/h3&gt;" style="rounded=0;whiteSpace=wrap;html=1;labelBackgroundColor=none;align=center;fontStyle=1;fillColor=none;strokeColor=#000000;fontColor=#000000;" parent="1" vertex="1">
                    <mxGeometry x="160" y="40" width="150" height="30" as="geometry"/>
                </mxCell>
                <mxCell id="17" value="" style="shape=lineEllipse;line=vertical;perimeter=ellipsePerimeter;whiteSpace=wrap;html=1;backgroundOutline=1;labelBackgroundColor=none;align=center;rotation=90;fillColor=none;strokeColor=#000000;fontColor=#000000;" parent="1" vertex="1">
                    <mxGeometry x="290" y="110" width="85" height="210" as="geometry"/>
                </mxCell>
                <mxCell id="18" value="&lt;h3 style=&quot;font-size: 15px;&quot;&gt;Kundendaten ändern&lt;/h3&gt;" style="text;html=1;align=center;verticalAlign=middle;whiteSpace=wrap;rounded=0;labelBackgroundColor=none;fontSize=15;fillColor=none;strokeColor=none;fontColor=#000000;" parent="1" vertex="1">
                    <mxGeometry x="252.5" y="189" width="160" height="20" as="geometry"/>
                </mxCell>
                <mxCell id="20" value="EP: Service Paket" style="text;html=1;align=left;verticalAlign=middle;whiteSpace=wrap;rounded=0;labelBackgroundColor=none;fillColor=none;strokeColor=none;fontColor=#000000;" parent="1" vertex="1">
                    <mxGeometry x="260" y="220" width="160" height="20" as="geometry"/>
                </mxCell>
                <mxCell id="21" value="EP: Anschrift ändern" style="text;html=1;align=left;verticalAlign=middle;whiteSpace=wrap;rounded=0;labelBackgroundColor=none;fillColor=none;strokeColor=none;fontColor=#000000;" parent="1" vertex="1">
                    <mxGeometry x="260" y="230" width="130" height="20" as="geometry"/>
                </mxCell>
                <mxCell id="23" value="" style="endArrow=none;html=1;labelBackgroundColor=none;fontColor=#000000;exitX=0.5;exitY=0.5;exitDx=0;exitDy=0;exitPerimeter=0;entryX=0.5;entryY=1;entryDx=0;entryDy=0;fillColor=none;strokeColor=#000000;" parent="1" source="13" target="17" edge="1">
                    <mxGeometry width="50" height="50" relative="1" as="geometry">
                        <mxPoint x="190" y="240" as="sourcePoint"/>
                        <mxPoint x="240" y="190" as="targetPoint"/>
                    </mxGeometry>
                </mxCell>
                <mxCell id="24" value="Service Paket" style="ellipse;whiteSpace=wrap;html=1;labelBackgroundColor=none;align=center;fillColor=none;strokeColor=#000000;fontColor=#000000;" parent="1" vertex="1">
                    <mxGeometry x="484" y="140" width="120" height="30" as="geometry"/>
                </mxCell>
                <mxCell id="25" value="" style="endArrow=none;dashed=1;html=1;labelBackgroundColor=none;fontColor=#000000;entryX=0;entryY=0.5;entryDx=0;entryDy=0;exitX=1;exitY=0.5;exitDx=0;exitDy=0;startArrow=none;startFill=0;rounded=0;fillColor=none;strokeColor=#000000;" parent="1" source="26" target="24" edge="1">
                    <mxGeometry width="50" height="50" relative="1" as="geometry">
                        <mxPoint x="460" y="340" as="sourcePoint"/>
                        <mxPoint x="510" y="290" as="targetPoint"/>
                    </mxGeometry>
                </mxCell>
                <mxCell id="28" value="Anschrift ändern" style="ellipse;whiteSpace=wrap;html=1;labelBackgroundColor=none;fontSize=12;align=center;fillColor=none;strokeColor=#000000;fontColor=#000000;" parent="1" vertex="1">
                    <mxGeometry x="500" y="200" width="120" height="30" as="geometry"/>
                </mxCell>
                <mxCell id="29" value="" style="endArrow=none;dashed=1;html=1;labelBackgroundColor=none;fontSize=12;fontColor=#000000;entryX=0;entryY=0.5;entryDx=0;entryDy=0;exitX=1;exitY=0.75;exitDx=0;exitDy=0;strokeWidth=1;startArrow=none;startFill=0;rounded=0;fillColor=none;strokeColor=#000000;" parent="1" source="30" target="28" edge="1">
                    <mxGeometry width="50" height="50" relative="1" as="geometry">
                        <mxPoint x="450" y="340" as="sourcePoint"/>
                        <mxPoint x="500" y="290" as="targetPoint"/>
                        <Array as="points"/>
                    </mxGeometry>
                </mxCell>
                <mxCell id="33" value="" style="endArrow=none;dashed=1;html=1;labelBackgroundColor=none;fontSize=12;fontColor=#000000;entryX=1;entryY=0.5;entryDx=0;entryDy=0;exitX=0;exitY=0.75;exitDx=0;exitDy=0;rounded=0;strokeWidth=1;startArrow=none;startFill=0;fillColor=none;strokeColor=#000000;" parent="1" source="35" target="28" edge="1">
                    <mxGeometry width="50" height="50" relative="1" as="geometry">
                        <mxPoint x="515" y="230" as="sourcePoint"/>
                        <mxPoint x="590" y="230" as="targetPoint"/>
                        <Array as="points"/>
                    </mxGeometry>
                </mxCell>
                <mxCell id="34" value="&lt;font style=&quot;font-size: 10px;&quot;&gt;Anschrift angeben&lt;/font&gt;" style="ellipse;whiteSpace=wrap;html=1;labelBackgroundColor=none;fontSize=10;align=center;fillColor=none;strokeColor=#000000;fontColor=#000000;" parent="1" vertex="1">
                    <mxGeometry x="700" y="200" width="100" height="30" as="geometry"/>
                </mxCell>
                <mxCell id="35" value="&lt;font style=&quot;font-size: 10px&quot;&gt;&amp;lt;&amp;lt;in&amp;gt;&amp;gt;&lt;/font&gt;" style="text;html=1;align=center;verticalAlign=middle;whiteSpace=wrap;rounded=0;labelBackgroundColor=none;fontSize=12;rotation=0;fillColor=none;strokeColor=none;fontColor=#000000;" parent="1" vertex="1">
                    <mxGeometry x="640" y="207" width="35" height="10" as="geometry"/>
                </mxCell>
                <mxCell id="36" value="" style="endArrow=none;dashed=1;html=1;labelBackgroundColor=none;fontSize=12;fontColor=#000000;entryX=1;entryY=0.75;entryDx=0;entryDy=0;exitX=0;exitY=0.5;exitDx=0;exitDy=0;rounded=0;strokeWidth=1;startArrow=classicThin;startFill=1;fillColor=none;strokeColor=#000000;" parent="1" source="34" target="35" edge="1">
                    <mxGeometry width="50" height="50" relative="1" as="geometry">
                        <mxPoint x="700" y="160" as="sourcePoint"/>
                        <mxPoint x="700" y="220" as="targetPoint"/>
                        <Array as="points"/>
                    </mxGeometry>
                </mxCell>
                <mxCell id="26" value="&lt;font style=&quot;font-size: 10px&quot;&gt;&amp;lt;&amp;lt;ex&amp;gt;&amp;gt;&lt;/font&gt;" style="text;html=1;align=center;verticalAlign=middle;whiteSpace=wrap;rounded=0;labelBackgroundColor=none;fontSize=10;rotation=-20.9;fillColor=none;strokeColor=none;fontColor=#000000;" parent="1" vertex="1">
                    <mxGeometry x="430" y="162" width="42.84" height="10" as="geometry"/>
                </mxCell>
                <mxCell id="37" value="" style="endArrow=none;dashed=1;html=1;labelBackgroundColor=none;fontColor=#000000;entryX=0;entryY=0.5;entryDx=0;entryDy=0;exitX=0;exitY=0;exitDx=0;exitDy=0;startArrow=classicThin;startFill=1;rounded=0;fillColor=none;strokeColor=#000000;" parent="1" source="17" target="26" edge="1">
                    <mxGeometry width="50" height="50" relative="1" as="geometry">
                        <mxPoint x="474.2820192100537" y="189.9624621773553" as="sourcePoint"/>
                        <mxPoint x="540" y="155" as="targetPoint"/>
                    </mxGeometry>
                </mxCell>
                <mxCell id="30" value="&lt;font style=&quot;font-size: 10px&quot;&gt;&amp;lt;&amp;lt;ex&amp;gt;&amp;gt;&lt;/font&gt;" style="text;html=1;align=center;verticalAlign=middle;whiteSpace=wrap;rounded=0;labelBackgroundColor=none;fontSize=12;fillColor=none;strokeColor=none;fontColor=#000000;" parent="1" vertex="1">
                    <mxGeometry x="452" y="208" width="40" height="10" as="geometry"/>
                </mxCell>
                <mxCell id="38" value="" style="endArrow=none;dashed=1;html=1;labelBackgroundColor=none;fontSize=12;fontColor=#000000;entryX=0;entryY=0.75;entryDx=0;entryDy=0;exitX=0.5;exitY=0;exitDx=0;exitDy=0;rounded=0;strokeWidth=1;startArrow=classicThin;startFill=1;fillColor=none;strokeColor=#000000;" parent="1" source="17" target="30" edge="1">
                    <mxGeometry width="50" height="50" relative="1" as="geometry">
                        <mxPoint x="505" y="220" as="sourcePoint"/>
                        <mxPoint x="580" y="220" as="targetPoint"/>
                        <Array as="points"/>
                    </mxGeometry>
                </mxCell>
                <mxCell id="40" value="Kontodaten abrufen" style="ellipse;whiteSpace=wrap;html=1;labelBackgroundColor=none;fontSize=15;align=center;fillColor=none;strokeColor=#000000;fontColor=#000000;" parent="1" vertex="1">
                    <mxGeometry x="262.5" y="280" width="140" height="50" as="geometry"/>
                </mxCell>
                <mxCell id="41" value="" style="endArrow=none;html=1;labelBackgroundColor=none;fontColor=#000000;exitX=0.5;exitY=0.5;exitDx=0;exitDy=0;exitPerimeter=0;entryX=0;entryY=0.5;entryDx=0;entryDy=0;fillColor=none;strokeColor=#000000;" parent="1" source="13" target="40" edge="1">
                    <mxGeometry width="50" height="50" relative="1" as="geometry">
                        <mxPoint x="70" y="230" as="sourcePoint"/>
                        <mxPoint x="237.5" y="225" as="targetPoint"/>
                    </mxGeometry>
                </mxCell>
                <mxCell id="42" value="Login" style="ellipse;whiteSpace=wrap;html=1;labelBackgroundColor=none;fontSize=12;align=center;fillColor=none;strokeColor=#000000;fontColor=#000000;" parent="1" vertex="1">
                    <mxGeometry x="540" y="310" width="120" height="30" as="geometry"/>
                </mxCell>
                <mxCell id="43" value="" style="shape=lineEllipse;line=vertical;perimeter=ellipsePerimeter;whiteSpace=wrap;html=1;backgroundOutline=1;labelBackgroundColor=none;align=center;rotation=90;fillColor=none;strokeColor=#000000;fontColor=#000000;" parent="1" vertex="1">
                    <mxGeometry x="290" y="300" width="85" height="210" as="geometry"/>
                </mxCell>
                <mxCell id="44" value="Fahrraddaten abrufen" style="text;html=1;align=center;verticalAlign=middle;whiteSpace=wrap;rounded=0;labelBackgroundColor=none;fontSize=15;fillColor=none;strokeColor=none;fontColor=#000000;" parent="1" vertex="1">
                    <mxGeometry x="257.5" y="380" width="150" height="20" as="geometry"/>
                </mxCell>
                <mxCell id="45" value="EP: Fahrradstatus" style="text;html=1;align=left;verticalAlign=middle;whiteSpace=wrap;rounded=0;labelBackgroundColor=none;fillColor=none;strokeColor=none;fontColor=#000000;" parent="1" vertex="1">
                    <mxGeometry x="260" y="410" width="130" height="20" as="geometry"/>
                </mxCell>
                <mxCell id="46" value="Fahrradstatus abrufen" style="ellipse;whiteSpace=wrap;html=1;labelBackgroundColor=none;fontSize=12;align=center;fillColor=none;strokeColor=#000000;fontColor=#000000;" parent="1" vertex="1">
                    <mxGeometry x="580" y="390" width="160" height="30" as="geometry"/>
                </mxCell>
                <mxCell id="47" value="" style="endArrow=none;dashed=1;html=1;labelBackgroundColor=none;fontSize=12;fontColor=#000000;entryX=1;entryY=0.5;entryDx=0;entryDy=0;exitX=0;exitY=0.75;exitDx=0;exitDy=0;rounded=0;strokeWidth=1;startArrow=none;startFill=0;fillColor=none;strokeColor=#000000;" parent="1" source="48" target="40" edge="1">
                    <mxGeometry width="50" height="50" relative="1" as="geometry">
                        <mxPoint x="525" y="240" as="sourcePoint"/>
                        <mxPoint x="630" y="225" as="targetPoint"/>
                        <Array as="points"/>
                    </mxGeometry>
                </mxCell>
                <mxCell id="48" value="&lt;font style=&quot;font-size: 10px&quot;&gt;&amp;lt;&amp;lt;in&amp;gt;&amp;gt;&lt;/font&gt;" style="text;html=1;align=center;verticalAlign=middle;whiteSpace=wrap;rounded=0;labelBackgroundColor=none;fontSize=12;rotation=7.799999999999999;fillColor=none;strokeColor=none;fontColor=#000000;" parent="1" vertex="1">
                    <mxGeometry x="437" y="306.2" width="42.92" height="10" as="geometry"/>
                </mxCell>
                <mxCell id="49" value="" style="endArrow=none;dashed=1;html=1;labelBackgroundColor=none;fontSize=12;fontColor=#000000;entryX=1;entryY=0.75;entryDx=0;entryDy=0;exitX=0;exitY=0.5;exitDx=0;exitDy=0;rounded=0;strokeWidth=1;startArrow=classicThin;startFill=1;fillColor=none;strokeColor=#000000;" parent="1" source="42" target="48" edge="1">
                    <mxGeometry width="50" height="50" relative="1" as="geometry">
                        <mxPoint x="710" y="214" as="sourcePoint"/>
                        <mxPoint x="710" y="230" as="targetPoint"/>
                        <Array as="points"/>
                    </mxGeometry>
                </mxCell>
                <mxCell id="50" value="" style="endArrow=none;dashed=1;html=1;labelBackgroundColor=none;fontSize=12;fontColor=#000000;entryX=0.351;entryY=0.023;entryDx=0;entryDy=0;exitX=0;exitY=0.75;exitDx=0;exitDy=0;rounded=0;strokeWidth=1;startArrow=none;startFill=0;entryPerimeter=0;fillColor=none;strokeColor=#000000;" parent="1" source="51" target="43" edge="1">
                    <mxGeometry width="50" height="50" relative="1" as="geometry">
                        <mxPoint x="535" y="250" as="sourcePoint"/>
                        <mxPoint x="640" y="235" as="targetPoint"/>
                        <Array as="points"/>
                    </mxGeometry>
                </mxCell>
                <mxCell id="51" value="&lt;font style=&quot;font-size: 10px&quot;&gt;&amp;lt;&amp;lt;in&amp;gt;&amp;gt;&lt;/font&gt;" style="text;html=1;align=center;verticalAlign=middle;whiteSpace=wrap;rounded=0;labelBackgroundColor=none;fontSize=12;rotation=-26.3;fillColor=none;strokeColor=none;fontColor=#000000;" parent="1" vertex="1">
                    <mxGeometry x="475" y="358" width="40" height="10" as="geometry"/>
                </mxCell>
                <mxCell id="52" value="" style="endArrow=none;dashed=1;html=1;labelBackgroundColor=none;fontSize=12;fontColor=#000000;entryX=1;entryY=0.75;entryDx=0;entryDy=0;exitX=0;exitY=1;exitDx=0;exitDy=0;rounded=0;strokeWidth=1;startArrow=classicThin;startFill=1;fillColor=none;strokeColor=#000000;" parent="1" source="42" target="51" edge="1">
                    <mxGeometry width="50" height="50" relative="1" as="geometry">
                        <mxPoint x="720" y="224" as="sourcePoint"/>
                        <mxPoint x="720" y="240" as="targetPoint"/>
                        <Array as="points"/>
                    </mxGeometry>
                </mxCell>
                <mxCell id="53" value="" style="endArrow=none;dashed=1;html=1;labelBackgroundColor=none;fontSize=12;fontColor=#000000;entryX=1;entryY=0;entryDx=0;entryDy=0;exitX=0;exitY=0.75;exitDx=0;exitDy=0;rounded=0;strokeWidth=1;startArrow=none;startFill=0;fillColor=none;strokeColor=#000000;" parent="1" source="54" target="17" edge="1">
                    <mxGeometry width="50" height="50" relative="1" as="geometry">
                        <mxPoint x="361.64" y="278" as="sourcePoint"/>
                        <mxPoint x="466.64" y="263" as="targetPoint"/>
                        <Array as="points"/>
                    </mxGeometry>
                </mxCell>
                <mxCell id="54" value="&lt;font style=&quot;font-size: 10px&quot;&gt;&amp;lt;&amp;lt;in&amp;gt;&amp;gt;&lt;/font&gt;" style="text;html=1;align=center;verticalAlign=middle;whiteSpace=wrap;rounded=0;labelBackgroundColor=none;fontSize=12;rotation=23.3;fillColor=none;strokeColor=none;fontColor=#000000;" parent="1" vertex="1">
                    <mxGeometry x="440.55" y="259.75" width="40.53" height="10" as="geometry"/>
                </mxCell>
                <mxCell id="55" value="" style="endArrow=none;dashed=1;html=1;labelBackgroundColor=none;fontSize=12;fontColor=#000000;entryX=1;entryY=0.75;entryDx=0;entryDy=0;exitX=0;exitY=0;exitDx=0;exitDy=0;rounded=0;strokeWidth=1;startArrow=classicThin;startFill=1;fillColor=none;strokeColor=#000000;" parent="1" source="42" target="54" edge="1">
                    <mxGeometry width="50" height="50" relative="1" as="geometry">
                        <mxPoint x="546.64" y="252" as="sourcePoint"/>
                        <mxPoint x="546.64" y="268" as="targetPoint"/>
                        <Array as="points"/>
                    </mxGeometry>
                </mxCell>
                <mxCell id="62" value="" style="endArrow=none;dashed=1;html=1;labelBackgroundColor=none;fontColor=#000000;entryX=0;entryY=0.5;entryDx=0;entryDy=0;exitX=1;exitY=0.5;exitDx=0;exitDy=0;startArrow=none;startFill=0;rounded=0;fillColor=none;strokeColor=#000000;" parent="1" source="63" target="46" edge="1">
                    <mxGeometry width="50" height="50" relative="1" as="geometry">
                        <mxPoint x="537.25" y="565.05" as="sourcePoint"/>
                        <mxPoint x="561.2500000000016" y="380.05" as="targetPoint"/>
                    </mxGeometry>
                </mxCell>
                <mxCell id="63" value="&lt;font style=&quot;font-size: 10px&quot;&gt;&amp;lt;&amp;lt;ex&amp;gt;&amp;gt;&lt;/font&gt;" style="text;html=1;align=center;verticalAlign=middle;whiteSpace=wrap;rounded=0;labelBackgroundColor=none;fontSize=8;rotation=0;fillColor=none;strokeColor=none;fontColor=#000000;" parent="1" vertex="1">
                    <mxGeometry x="500" y="400" width="40" height="10" as="geometry"/>
                </mxCell>
                <mxCell id="64" value="" style="endArrow=none;dashed=1;html=1;labelBackgroundColor=none;fontColor=#000000;entryX=0;entryY=0.5;entryDx=0;entryDy=0;exitX=0.5;exitY=0;exitDx=0;exitDy=0;startArrow=classicThin;startFill=1;rounded=0;fillColor=none;strokeColor=#000000;" parent="1" source="43" target="63" edge="1">
                    <mxGeometry width="50" height="50" relative="1" as="geometry">
                        <mxPoint x="483.9962120245872" y="409.9979617995719" as="sourcePoint"/>
                        <mxPoint x="617.25" y="380.05" as="targetPoint"/>
                    </mxGeometry>
                </mxCell>
                <mxCell id="65" value="" style="endArrow=none;html=1;labelBackgroundColor=none;fontColor=#000000;exitX=0.5;exitY=0.5;exitDx=0;exitDy=0;exitPerimeter=0;entryX=0.5;entryY=1;entryDx=0;entryDy=0;fillColor=none;strokeColor=#000000;" parent="1" source="13" target="43" edge="1">
                    <mxGeometry width="50" height="50" relative="1" as="geometry">
                        <mxPoint x="70" y="229.9999999999999" as="sourcePoint"/>
                        <mxPoint x="272.5" y="314.9999999999999" as="targetPoint"/>
                    </mxGeometry>
                </mxCell>
                <mxCell id="66" value="Fahrradstatus ändern" style="ellipse;whiteSpace=wrap;html=1;labelBackgroundColor=none;fontSize=15;align=center;fillColor=none;strokeColor=#000000;fontColor=#000000;" parent="1" vertex="1">
                    <mxGeometry x="260" y="470" width="160" height="60" as="geometry"/>
                </mxCell>
                <mxCell id="67" value="Neues Fahrrad hinzufügen" style="ellipse;whiteSpace=wrap;html=1;labelBackgroundColor=none;fontSize=15;align=center;fillColor=none;strokeColor=#000000;fontColor=#000000;" parent="1" vertex="1">
                    <mxGeometry x="260" y="540" width="160" height="60" as="geometry"/>
                </mxCell>
                <mxCell id="68" value="" style="endArrow=none;html=1;labelBackgroundColor=none;fontColor=#000000;exitX=0.5;exitY=0.5;exitDx=0;exitDy=0;exitPerimeter=0;entryX=0;entryY=0.5;entryDx=0;entryDy=0;fillColor=none;strokeColor=#000000;" parent="1" source="10" target="66" edge="1">
                    <mxGeometry width="50" height="50" relative="1" as="geometry">
                        <mxPoint x="80" y="375" as="sourcePoint"/>
                        <mxPoint x="247.5" y="560" as="targetPoint"/>
                    </mxGeometry>
                </mxCell>
                <mxCell id="69" value="" style="endArrow=none;html=1;labelBackgroundColor=none;fontColor=#000000;exitX=0.5;exitY=0.5;exitDx=0;exitDy=0;exitPerimeter=0;entryX=0;entryY=0.5;entryDx=0;entryDy=0;fillColor=none;strokeColor=#000000;" parent="1" source="10" target="67" edge="1">
                    <mxGeometry width="50" height="50" relative="1" as="geometry">
                        <mxPoint x="70" y="550" as="sourcePoint"/>
                        <mxPoint x="270" y="510" as="targetPoint"/>
                    </mxGeometry>
                </mxCell>
                <mxCell id="72" value="" style="rounded=0;whiteSpace=wrap;html=1;labelBackgroundColor=none;fillColor=none;strokeColor=#000000;" vertex="1" parent="1">
                    <mxGeometry x="30" y="30" width="790" height="620" as="geometry"/>
                </mxCell>
            </root>
        </mxGraphModel>
    </diagram>
</mxfile>